<mxfile host="app.diagrams.net" modified="2024-05-28T18:33:49.562Z" agent="Mozilla/5.0 (Windows NT 10.0; Win64; x64) AppleWebKit/537.36 (KHTML, like Gecko) Chrome/125.0.0.0 Safari/537.36" etag="HzrWXdHOHcz9CW6UDvTP" version="24.4.9" type="device">
  <diagram name="Strona-1" id="sfChZxmKZQOQPT1h3Z6z">
    <mxGraphModel dx="1615" dy="1005" grid="1" gridSize="10" guides="1" tooltips="1" connect="1" arrows="1" fold="1" page="1" pageScale="1" pageWidth="827" pageHeight="1169" math="0" shadow="0">
      <root>
        <mxCell id="0" />
        <mxCell id="1" parent="0" />
        <mxCell id="lqGe73jUspgTDAonbyyT-1" value="Generuj fakturę" style="text;html=1;align=center;verticalAlign=middle;resizable=0;points=[];autosize=1;strokeColor=none;fillColor=none;" vertex="1" parent="1">
          <mxGeometry x="15" y="48" width="110" height="30" as="geometry" />
        </mxCell>
        <mxCell id="lqGe73jUspgTDAonbyyT-12" value="" style="edgeStyle=orthogonalEdgeStyle;rounded=0;orthogonalLoop=1;jettySize=auto;html=1;" edge="1" parent="1" source="lqGe73jUspgTDAonbyyT-2" target="lqGe73jUspgTDAonbyyT-11">
          <mxGeometry relative="1" as="geometry" />
        </mxCell>
        <mxCell id="lqGe73jUspgTDAonbyyT-2" value="System wyświetla okno ze statusem zgłoszenia" style="rounded=1;whiteSpace=wrap;html=1;" vertex="1" parent="1">
          <mxGeometry x="180" y="180" width="120" height="60" as="geometry" />
        </mxCell>
        <mxCell id="lqGe73jUspgTDAonbyyT-5" value="" style="edgeStyle=orthogonalEdgeStyle;rounded=0;orthogonalLoop=1;jettySize=auto;html=1;" edge="1" parent="1" source="lqGe73jUspgTDAonbyyT-3" target="lqGe73jUspgTDAonbyyT-2">
          <mxGeometry relative="1" as="geometry" />
        </mxCell>
        <mxCell id="lqGe73jUspgTDAonbyyT-3" value="" style="ellipse;whiteSpace=wrap;html=1;aspect=fixed;" vertex="1" parent="1">
          <mxGeometry x="230" y="120" width="20" height="20" as="geometry" />
        </mxCell>
        <mxCell id="lqGe73jUspgTDAonbyyT-4" value="Start" style="text;html=1;align=center;verticalAlign=middle;resizable=0;points=[];autosize=1;strokeColor=none;fillColor=none;" vertex="1" parent="1">
          <mxGeometry x="270" y="115" width="50" height="30" as="geometry" />
        </mxCell>
        <mxCell id="lqGe73jUspgTDAonbyyT-27" value="" style="edgeStyle=orthogonalEdgeStyle;rounded=0;orthogonalLoop=1;jettySize=auto;html=1;" edge="1" parent="1" source="lqGe73jUspgTDAonbyyT-6" target="lqGe73jUspgTDAonbyyT-26">
          <mxGeometry relative="1" as="geometry" />
        </mxCell>
        <mxCell id="lqGe73jUspgTDAonbyyT-6" value="System zapisuje fakturę" style="rounded=1;whiteSpace=wrap;html=1;" vertex="1" parent="1">
          <mxGeometry x="180" y="720" width="120" height="60" as="geometry" />
        </mxCell>
        <mxCell id="lqGe73jUspgTDAonbyyT-37" value="" style="edgeStyle=orthogonalEdgeStyle;rounded=0;orthogonalLoop=1;jettySize=auto;html=1;" edge="1" parent="1" source="lqGe73jUspgTDAonbyyT-7" target="lqGe73jUspgTDAonbyyT-36">
          <mxGeometry relative="1" as="geometry" />
        </mxCell>
        <mxCell id="lqGe73jUspgTDAonbyyT-7" value="System informuje uczestnika o błędzie i prosi o spróbowanie później" style="rounded=1;whiteSpace=wrap;html=1;" vertex="1" parent="1">
          <mxGeometry x="520" y="560" width="120" height="60" as="geometry" />
        </mxCell>
        <mxCell id="lqGe73jUspgTDAonbyyT-23" style="edgeStyle=orthogonalEdgeStyle;rounded=0;orthogonalLoop=1;jettySize=auto;html=1;entryX=1;entryY=0.5;entryDx=0;entryDy=0;" edge="1" parent="1" source="lqGe73jUspgTDAonbyyT-8" target="lqGe73jUspgTDAonbyyT-9">
          <mxGeometry relative="1" as="geometry">
            <Array as="points">
              <mxPoint x="420" y="585" />
            </Array>
          </mxGeometry>
        </mxCell>
        <mxCell id="lqGe73jUspgTDAonbyyT-8" value="System wykrywa błąd podczas zapisu i ponawia próbę" style="rounded=1;whiteSpace=wrap;html=1;" vertex="1" parent="1">
          <mxGeometry x="360" y="635" width="120" height="60" as="geometry" />
        </mxCell>
        <mxCell id="lqGe73jUspgTDAonbyyT-18" value="" style="edgeStyle=orthogonalEdgeStyle;rounded=0;orthogonalLoop=1;jettySize=auto;html=1;" edge="1" parent="1" source="lqGe73jUspgTDAonbyyT-9" target="lqGe73jUspgTDAonbyyT-17">
          <mxGeometry relative="1" as="geometry" />
        </mxCell>
        <mxCell id="lqGe73jUspgTDAonbyyT-9" value="System generuje fakturę na podstawie pobranych danych" style="rounded=1;whiteSpace=wrap;html=1;" vertex="1" parent="1">
          <mxGeometry x="180" y="555" width="120" height="60" as="geometry" />
        </mxCell>
        <mxCell id="lqGe73jUspgTDAonbyyT-15" value="" style="edgeStyle=orthogonalEdgeStyle;rounded=0;orthogonalLoop=1;jettySize=auto;html=1;" edge="1" parent="1" source="lqGe73jUspgTDAonbyyT-10" target="lqGe73jUspgTDAonbyyT-14">
          <mxGeometry relative="1" as="geometry" />
        </mxCell>
        <mxCell id="lqGe73jUspgTDAonbyyT-10" value="System pobiera informacje o uczestniku oraz o dokonanej płatności" style="rounded=1;whiteSpace=wrap;html=1;" vertex="1" parent="1">
          <mxGeometry x="180" y="380" width="120" height="60" as="geometry" />
        </mxCell>
        <mxCell id="lqGe73jUspgTDAonbyyT-13" value="" style="edgeStyle=orthogonalEdgeStyle;rounded=0;orthogonalLoop=1;jettySize=auto;html=1;" edge="1" parent="1" source="lqGe73jUspgTDAonbyyT-11" target="lqGe73jUspgTDAonbyyT-10">
          <mxGeometry relative="1" as="geometry" />
        </mxCell>
        <mxCell id="lqGe73jUspgTDAonbyyT-11" value="Uczestnik wybiera opcję &quot;generuj fakturę&quot;" style="rounded=1;whiteSpace=wrap;html=1;" vertex="1" parent="1">
          <mxGeometry x="180" y="280" width="120" height="60" as="geometry" />
        </mxCell>
        <mxCell id="lqGe73jUspgTDAonbyyT-16" value="" style="edgeStyle=orthogonalEdgeStyle;rounded=0;orthogonalLoop=1;jettySize=auto;html=1;" edge="1" parent="1" source="lqGe73jUspgTDAonbyyT-14" target="lqGe73jUspgTDAonbyyT-9">
          <mxGeometry relative="1" as="geometry" />
        </mxCell>
        <mxCell id="lqGe73jUspgTDAonbyyT-34" style="edgeStyle=orthogonalEdgeStyle;rounded=0;orthogonalLoop=1;jettySize=auto;html=1;entryX=0;entryY=0.5;entryDx=0;entryDy=0;" edge="1" parent="1" source="lqGe73jUspgTDAonbyyT-14" target="lqGe73jUspgTDAonbyyT-25">
          <mxGeometry relative="1" as="geometry" />
        </mxCell>
        <mxCell id="lqGe73jUspgTDAonbyyT-14" value="" style="rhombus;whiteSpace=wrap;html=1;" vertex="1" parent="1">
          <mxGeometry x="225" y="480" width="30" height="30" as="geometry" />
        </mxCell>
        <mxCell id="lqGe73jUspgTDAonbyyT-22" value="" style="edgeStyle=orthogonalEdgeStyle;rounded=0;orthogonalLoop=1;jettySize=auto;html=1;" edge="1" parent="1" source="lqGe73jUspgTDAonbyyT-17" target="lqGe73jUspgTDAonbyyT-8">
          <mxGeometry relative="1" as="geometry" />
        </mxCell>
        <mxCell id="lqGe73jUspgTDAonbyyT-24" value="" style="edgeStyle=orthogonalEdgeStyle;rounded=0;orthogonalLoop=1;jettySize=auto;html=1;" edge="1" parent="1" source="lqGe73jUspgTDAonbyyT-17" target="lqGe73jUspgTDAonbyyT-6">
          <mxGeometry relative="1" as="geometry" />
        </mxCell>
        <mxCell id="lqGe73jUspgTDAonbyyT-17" value="" style="rhombus;whiteSpace=wrap;html=1;" vertex="1" parent="1">
          <mxGeometry x="225" y="650" width="30" height="30" as="geometry" />
        </mxCell>
        <mxCell id="lqGe73jUspgTDAonbyyT-19" value="Text" style="text;html=1;align=center;verticalAlign=middle;whiteSpace=wrap;rounded=0;" vertex="1" parent="1">
          <mxGeometry x="290" y="510" width="60" height="30" as="geometry" />
        </mxCell>
        <mxCell id="lqGe73jUspgTDAonbyyT-20" value="Alternatywa" style="text;html=1;align=center;verticalAlign=middle;whiteSpace=wrap;rounded=0;" vertex="1" parent="1">
          <mxGeometry x="260" y="450" width="60" height="30" as="geometry" />
        </mxCell>
        <mxCell id="lqGe73jUspgTDAonbyyT-21" value="Wyjątek" style="text;html=1;align=center;verticalAlign=middle;resizable=0;points=[];autosize=1;strokeColor=none;fillColor=none;" vertex="1" parent="1">
          <mxGeometry x="255" y="630" width="70" height="30" as="geometry" />
        </mxCell>
        <mxCell id="lqGe73jUspgTDAonbyyT-35" value="" style="edgeStyle=orthogonalEdgeStyle;rounded=0;orthogonalLoop=1;jettySize=auto;html=1;" edge="1" parent="1" source="lqGe73jUspgTDAonbyyT-25" target="lqGe73jUspgTDAonbyyT-7">
          <mxGeometry relative="1" as="geometry" />
        </mxCell>
        <mxCell id="lqGe73jUspgTDAonbyyT-25" value="System wykrywa błąd podczas pobierania danych" style="rounded=1;whiteSpace=wrap;html=1;" vertex="1" parent="1">
          <mxGeometry x="520" y="465" width="120" height="60" as="geometry" />
        </mxCell>
        <mxCell id="lqGe73jUspgTDAonbyyT-30" value="" style="edgeStyle=orthogonalEdgeStyle;rounded=0;orthogonalLoop=1;jettySize=auto;html=1;" edge="1" parent="1" source="lqGe73jUspgTDAonbyyT-26" target="lqGe73jUspgTDAonbyyT-29">
          <mxGeometry relative="1" as="geometry" />
        </mxCell>
        <mxCell id="lqGe73jUspgTDAonbyyT-26" value="System automatycznie pobiera" style="rounded=1;whiteSpace=wrap;html=1;" vertex="1" parent="1">
          <mxGeometry x="180" y="830" width="120" height="60" as="geometry" />
        </mxCell>
        <mxCell id="lqGe73jUspgTDAonbyyT-29" value="" style="ellipse;whiteSpace=wrap;html=1;aspect=fixed;" vertex="1" parent="1">
          <mxGeometry x="230" y="930" width="20" height="20" as="geometry" />
        </mxCell>
        <mxCell id="lqGe73jUspgTDAonbyyT-31" value="End" style="text;html=1;align=center;verticalAlign=middle;resizable=0;points=[];autosize=1;strokeColor=none;fillColor=none;" vertex="1" parent="1">
          <mxGeometry x="270" y="925" width="40" height="30" as="geometry" />
        </mxCell>
        <mxCell id="lqGe73jUspgTDAonbyyT-36" value="" style="shape=sumEllipse;perimeter=ellipsePerimeter;whiteSpace=wrap;html=1;backgroundOutline=1;" vertex="1" parent="1">
          <mxGeometry x="565" y="650" width="30" height="30" as="geometry" />
        </mxCell>
        <mxCell id="lqGe73jUspgTDAonbyyT-38" value="FlowEnd" style="text;html=1;align=center;verticalAlign=middle;resizable=0;points=[];autosize=1;strokeColor=none;fillColor=none;" vertex="1" parent="1">
          <mxGeometry x="610" y="650" width="70" height="30" as="geometry" />
        </mxCell>
      </root>
    </mxGraphModel>
  </diagram>
</mxfile>
